<svg width="44" height="54" viewBox="0 0 44 54" fill="none" xmlns="http://www.w3.org/2000/svg">
<path d="M12 27H24.5M32 20.75C30.6713 19.1966 28.8985 18.0877 26.9203 17.5726C24.9421 17.0576 22.8536 17.1611 20.9361 17.8693C19.0185 18.5775 17.3641 19.8564 16.1956 21.5336C15.0271 23.2108 14.4007 25.2059 14.4007 27.25C14.4007 29.2941 15.0271 31.2892 16.1956 32.9664C17.3641 34.6436 19.0185 35.9225 20.9361 36.6307C22.8536 37.3389 24.9421 37.4424 26.9203 36.9274C28.8985 36.4123 30.6713 35.3034 32 33.75M2 2V52L7 49.5L12 52L17 49.5L22 52L27 49.5L32 52L37 49.5L42 52V2L37 4.5L32 2L27 4.5L22 2L17 4.5L12 2L7 4.5L2 2Z" stroke="white" stroke-width="3" stroke-linecap="round" stroke-linejoin="round"/>
</svg>
